<svg xmlns="http://www.w3.org/2000/svg"
shape-rendering="geometricPrecision"
width="4000" height="4000" viewBox="0 0 1024 1024">
  <metadata>null</metadata>

<path d="
M 236.881 171.063
C 237.216 169.949 238.003 169.029 238.993 168.431
C 242.273 168.012 244.522 171.716 246.359 173.927
C 251.779 180.451 257.027 187.089 262.332 193.704
C 274.993 209.49 288.075 224.956 300.741 240.74
C 309.993 252.27 319.138 263.877 328.593 275.241
C 334.959 282.893 341.203 290.699 347.331 298.543
C 349.924 301.862 353.367 305.25 357.916 302.959
C 361.94 300.934 362.265 296.358 360.204 292.803
C 355.905 285.385 349.463 278.998 344.255 272.206
C 333.942 258.756 323.285 245.561 312.925 232.147
C 300.89 216.564 289.087 200.796 276.988 185.262
C 270.761 177.266 264.74 169.137 258.685 161.013
C 256.999 158.752 252.51 153.46 257.397 151.711
C 260.166 150.721 262.897 154.681 264.568 156.435
C 270.305 162.457 275.463 168.958 281.031 175.119
C 304.76 201.375 327.626 228.456 351.091 254.951
C 357.844 262.575 364.296 270.63 371.351 277.965
C 373.93 280.646 377.891 283.655 381.571 280.845
C 384.948 278.267 384.787 274.35 382.752 271.032
C 381.305 268.672 379.342 266.61 377.591 264.477
C 374.175 260.314 370.692 256.194 367.175 252.114
C 358.994 242.626 351.168 232.84 343.071 223.282
C 337.014 216.133 330.81 209.095 325.038 201.705
C 316.955 191.359 307.906 181.766 299.763 171.456
C 292.515 162.28 285 153.224 277.483 144.268
C 275.863 142.339 271.483 136.858 276.062 135.42
C 276.623 135.244 277.274 135.315 277.851 135.337
C 280.983 136.38 284.056 140.51 286.326 142.831
C 292.305 148.94 298.025 155.293 303.991 161.412
C 326.746 184.752 349.13 208.503 371.439 232.271
C 378.772 240.083 385.918 248.202 393.494 255.767
C 396.334 258.603 400.169 262.338 404.419 259.827
C 408.557 257.383 408.748 252.453 406.003 248.901
C 399.393 240.345 391.408 232.552 384.083 224.598
C 362.564 201.233 341.376 177.561 319.859 154.196
C 313.858 147.68 307.831 141.198 301.723 134.783
C 298.816 131.73 294.229 128.213 292.757 124.162
C 292.527 120.982 295.993 120.043 298.366 121.484
C 304.317 125.097 309.594 129.495 314.927 133.955
C 335.781 151.399 356.888 168.846 376.701 187.476
C 392.917 202.724 409.741 217.379 425.032 233.588
C 433.102 242.144 440.883 250.569 446.417 261.084
C 451.245 270.259 453.956 280.466 454.365 290.825
C 454.934 305.217 452.098 319.727 456.44 333.784
C 462.024 351.856 475.591 364.891 488.213 378.309
C 491.799 382.122 496.392 385.776 499.319 390.125
C 499.005 390.991 498.133 391.72 497.539 392.407
C 496.167 393.996 494.931 395.695 493.669 397.372
C 489.539 402.86 485.455 408.494 481.198 413.862
C 477.193 410.419 473.811 405.304 470.535 401.167
C 466.411 395.958 461.947 390.967 457.639 385.909
C 449.494 376.344 440.452 366.05 428.947 360.42
C 423.197 357.607 417.297 355.472 410.939 354.509
C 401.648 353.101 392.15 353.658 382.86 352.135
C 372.654 350.462 362.18 345.843 353.92 339.647
C 338.821 328.321 327.485 312.371 316.617 297.158
C 303.316 278.538 290.616 259.467 278.208 240.237
C 267.572 223.754 256.537 207.502 246.46 190.658
C 244.072 186.666 241.595 182.741 239.42 178.627
C 238.15 176.225 236.587 173.918 236.881 171.063 Z"
opacity="1" fill="rgb(162,27,33)" fill-rule="evenodd" />
<path d="
M 289.922 647.606
C 290.648 643.431 291.556 639.543 293.504 635.738
C 296.44 630.003 300.812 625.523 305.173 620.883
C 309.467 616.314 313.716 611.698 318.042 607.159
C 338.125 586.09 357.597 564.392 377.275 542.944
C 402.231 515.742 427.095 488.452 452.065 461.268
C 465.426 446.723 479.274 432.432 491.913 417.249
C 507.985 397.94 522.693 377.446 537.943 357.49
C 554.414 335.938 571.905 315.178 588.419 293.664
C 616.422 257.181 645.245 221.251 674.217 185.534
C 682.894 174.838 691.574 164.152 700.332 153.522
C 704.474 148.494 708.417 142.38 713.833 138.62
C 719.477 134.702 726.756 138.13 730.559 142.851
C 733.805 146.882 736.547 152.362 737.224 157.539
C 737.508 159.713 736.514 161.993 736.885 164.048
C 737.52 167.558 740.141 170.446 738.534 174.274
C 738.08 175.353 737.22 176.191 736.561 177.138
C 736.148 179.528 738.263 181.715 738.317 184.102
C 738.338 185.039 738.459 186.211 737.875 187.008
C 737.074 188.098 735.034 189.021 734.754 190.414
C 734.212 193.117 736.573 195.741 735.751 198.387
C 735.082 200.545 731.856 200.883 731.145 203.057
C 730.368 205.434 732.893 208.062 731.995 210.135
C 731.035 211.906 728.643 212.753 727.33 214.27
C 726.325 216.93 727.795 219.765 727.43 222.502
C 726.395 224.138 723.367 224.565 721.969 226.022
C 721.624 228.572 722.884 231.248 722.224 233.747
C 720.443 234.889 718.381 235.443 716.548 236.511
C 715.499 239.242 717.166 242.126 716.387 244.862
C 715.239 246.349 712.575 246.673 710.889 247.386
C 709.481 250.106 712.573 255.088 709.498 256.817
C 707.619 257.566 705.726 257.985 703.948 258.997
C 703.473 261.677 704.945 264.518 703.716 267.067
C 702.408 268.716 699.353 268.739 697.546 269.727
C 696.988 272.19 698.442 275.49 697.266 277.745
C 695.09 278.639 692.709 279.061 690.59 280.096
C 689.264 282.259 691.403 285.502 690.256 287.75
C 688.286 288.802 685.299 288.884 683.601 290.242
C 683.461 291.742 683.612 293.422 683.177 294.872
C 682.837 296.008 681.857 297.056 681.216 298.041
C 679.526 300.635 677.782 303.183 676.013 305.724
C 670.891 313.084 665.59 320.326 660.098 327.413
C 649.117 341.586 638.024 355.432 626.06 368.777
C 611.889 384.585 596.465 400.068 577.759 410.518
C 570.012 414.846 561.797 418.924 553.288 421.528
C 546.045 423.744 537.492 424.954 531.594 430.081
C 524.629 436.134 519.531 444.79 514.061 452.14
C 504.031 465.617 493.973 479.078 484.024 492.616
C 453.002 534.831 422.609 577.524 391.126 619.406
C 381.414 632.326 371.753 645.277 361.951 658.131
C 356.586 665.166 351.738 673.237 344.649 678.684
C 341.042 681.456 336.749 683.796 332.342 684.969
C 329.156 685.817 325.668 686.102 322.384 685.904
C 302.756 684.717 288.406 666.91 289.922 647.606 Z"
opacity="1" fill="rgb(161,27,34)" fill-rule="evenodd" />
<path d="
M 338.013 340.329
C 332.071 356.69 327.762 373.634 325.905 390.993
C 322.872 419.326 326.489 447.957 335.495 474.935
C 340.39 489.599 347.806 503.556 356.132 516.533
C 359.237 521.373 363.007 525.804 366.406 530.438
C 367.096 531.378 370.223 534.25 369.291 535.299
C 367.47 537.517 365.153 539.416 363.202 541.536
C 362.677 542.107 361.899 543.442 361.094 543.507
C 356.728 539.959 353.28 534.317 350.064 529.745
C 343.531 520.459 337.5 510.879 332.505 500.664
C 313.436 461.66 308.493 417.239 315.651 374.656
C 317.214 365.354 319.502 356.244 322.182 347.206
C 323.798 341.755 325.519 336.176 328.041 331.067
C 329.323 331.535 330.205 332.92 331.144 333.866
C 333.187 335.926 335.531 338.84 338.013 340.329 Z"
opacity="1" fill="rgb(156,28,32)" fill-rule="evenodd" />
<path d="
M 338.013 340.329
C 340.527 342.928 343.554 345.178 346.425 347.37
C 350.208 350.258 353.947 353.216 358.219 355.357
C 360.701 356.601 363.303 357.64 365.959 358.447
C 366.885 358.728 368.725 358.858 369.355 359.585
C 370.749 364.935 372.83 370.133 375.702 374.879
C 376.241 375.769 377.984 379.375 379.25 378.994
C 379.692 380.326 381.069 381.476 382.056 382.446
C 384.901 385.242 389.196 388.739 393.033 389.981
C 393.824 390.573 394.678 390.862 395.571 391.249
C 400.235 392.769 404.452 394.508 409.381 395.055
C 409.93 395.117 410.47 395.226 411.019 395.266
C 418.752 396.216 426.863 393.91 433.73 390.503
C 436.592 389.083 439.553 386.324 442.527 385.383
C 444.819 386.968 446.68 390.026 448.51 392.132
C 453.249 397.583 457.545 403.374 462.077 408.959
C 461.725 408.768 461.421 408.35 461.023 408.386
C 460.778 408.409 460.515 410.972 460.511 411.22
C 460.462 413.8 460.831 416.792 462.374 418.946
C 463.648 420.725 465.914 421.91 468.051 422.178
C 469.348 422.341 470.953 422.092 472.067 422.84
C 469.296 426.693 465.855 430.056 462.698 433.602
C 458.768 438.017 454.849 442.608 450.779 446.851
C 450.919 446.128 449.515 444.969 449.062 444.423
C 447.29 442.286 445.434 440.256 443.255 438.525
C 436.829 433.423 429.19 429.892 421.064 428.636
C 418.046 428.17 414.051 427.568 411.163 428.791
C 410.351 429.04 410.195 428.159 409.225 428.927
C 407.965 428.439 406.693 428.874 405.369 429.156
C 402.169 429.836 397.881 430.702 395.225 432.708
C 394.343 432.736 392.968 433.506 392.469 434.242
C 388.464 435.288 384.48 439.293 381.637 442.137
C 380.473 443.301 379.011 444.342 379.29 446.076
C 378.713 444.802 378.076 445.646 377.563 446.5
C 376.623 448.06 375.782 449.738 374.945 451.359
C 371.902 457.257 370.087 463.629 369.762 470.265
C 369.204 481.694 372.944 493.775 380.89 502.186
C 384.165 505.654 388.51 507.663 391.844 510.941
C 387.879 516.355 382.704 520.929 378.108 525.794
C 375.224 528.846 372.534 532.662 369.291 535.299
C 370.223 534.25 367.096 531.378 366.406 530.438
C 363.007 525.804 359.237 521.373 356.132 516.533
C 347.806 503.556 340.39 489.599 335.495 474.935
C 326.489 447.957 322.872 419.326 325.905 390.993
C 327.762 373.634 332.071 356.69 338.013 340.329 Z"
opacity="1" fill="rgb(247,185,33)" fill-rule="evenodd" />
<path d="
M 399.976 365.166
C 398.655 367.101 398.165 369.129 397.493 371.345
C 396.256 375.426 395.241 379.553 394.048 383.646
C 393.598 385.192 393.065 386.861 393.101 388.489
C 393.11 388.912 393.449 389.793 393.033 389.981
C 389.196 388.739 384.901 385.242 382.056 382.446
C 381.069 381.476 379.692 380.326 379.25 378.994
C 380.153 374.026 381.482 368.421 383.431 363.749
C 384.728 363.241 386.672 363.997 388.04 364.127
C 391.666 364.472 396.593 363.797 399.976 365.166 Z"
opacity="1" fill="rgb(153,26,33)" fill-rule="evenodd" />
<path d="
M 392.469 434.242
C 393.304 435.333 393.275 437.578 393.614 438.93
C 394.46 442.302 395.589 445.611 396.574 448.944
C 399.272 458.077 402.781 467.029 407.711 475.198
C 409.154 477.59 410.711 479.902 412.246 482.235
C 412.99 483.366 414.052 485.09 415.44 485.469
C 412.728 488.023 410.247 491.035 407.801 493.845
C 406.728 495.077 405.761 496.655 404.513 497.697
C 403.265 497.033 402.498 495.36 401.734 494.224
C 399.746 491.269 397.724 488.41 395.936 485.316
C 391.459 477.569 387.418 469.533 384.195 461.186
C 382.313 456.312 381.476 450.77 379.29 446.076
C 379.011 444.342 380.473 443.301 381.637 442.137
C 384.48 439.293 388.464 435.288 392.469 434.242 Z"
opacity="1" fill="rgb(155,26,32)" fill-rule="evenodd" />
<path d="
M 395.225 432.708
C 394.955 435.289 396.587 438.504 397.044 441.097
C 398.899 451.611 403.183 461.502 408.238 470.876
C 410.011 474.164 411.883 477.388 413.892 480.536
C 414.719 481.83 416.112 483.348 415.969 484.965
C 415.64 485.327 415.817 485.159 415.44 485.469
C 414.052 485.09 412.99 483.366 412.246 482.235
C 410.711 479.902 409.154 477.59 407.711 475.198
C 402.781 467.029 399.272 458.077 396.574 448.944
C 395.589 445.611 394.46 442.302 393.614 438.93
C 393.275 437.578 393.304 435.333 392.469 434.242
C 392.968 433.506 394.343 432.736 395.225 432.708 Z"
opacity="0.996" fill="rgb(224,57,57)" fill-rule="evenodd" />
<path d="
M 393.033 389.981
C 393.449 389.793 393.11 388.912 393.101 388.489
C 393.065 386.861 393.598 385.192 394.048 383.646
C 395.241 379.553 396.256 375.426 397.493 371.345
C 398.165 369.129 398.655 367.101 399.976 365.166
C 400.661 365.038 401.286 365.131 401.975 365.15
C 400.845 366.804 400.512 369.091 399.946 371.002
C 398.554 375.698 397.636 380.47 396.377 385.195
C 395.968 386.73 395.424 388.274 395.214 389.852
C 395.13 390.479 394.873 391.019 395.571 391.249
C 394.678 390.862 393.824 390.573 393.033 389.981 Z"
opacity="1" fill="rgb(218,59,58)" fill-rule="evenodd" />
<path d="
M 401.975 365.15
C 406.975 364.98 412.858 366.112 417.54 367.861
C 415.218 369.241 414.557 371.505 413.748 373.946
C 412.211 378.582 411.207 383.416 410.179 388.184
C 409.711 390.349 408.9 392.842 409.381 395.055
C 404.452 394.508 400.235 392.769 395.571 391.249
C 394.873 391.019 395.13 390.479 395.214 389.852
C 395.424 388.274 395.968 386.73 396.377 385.195
C 397.636 380.47 398.554 375.698 399.946 371.002
C 400.512 369.091 400.845 366.804 401.975 365.15 Z"
opacity="1" fill="rgb(154,25,32)" fill-rule="evenodd" />
<path d="
M 409.225 428.927
C 408.794 431.849 410.047 435.338 410.664 438.187
C 412.531 446.8 415.775 454.996 419.662 462.868
C 420.993 465.564 422.348 468.546 424.152 470.959
C 424.665 471.644 426.45 472.915 426.31 473.834
C 424.857 475.721 422.881 477.336 421.252 479.084
C 419.459 481.008 417.825 483.104 415.969 484.965
C 416.112 483.348 414.719 481.83 413.892 480.536
C 411.883 477.388 410.011 474.164 408.238 470.876
C 403.183 461.502 398.899 451.611 397.044 441.097
C 396.587 438.504 394.955 435.289 395.225 432.708
C 397.881 430.702 402.169 429.836 405.369 429.156
C 406.693 428.874 407.965 428.439 409.225 428.927 Z"
opacity="1" fill="rgb(155,26,32)" fill-rule="evenodd" />
<path d="
M 417.54 367.861
C 418.234 368.132 418.941 368.327 419.623 368.627
C 417.696 368.57 416.995 372.349 416.492 373.988
C 414.853 379.332 413.421 384.736 412.3 390.214
C 412.065 391.361 410.486 394.206 411.019 395.266
C 410.47 395.226 409.93 395.117 409.381 395.055
C 408.9 392.842 409.711 390.349 410.179 388.184
C 411.207 383.416 412.211 378.582 413.748 373.946
C 414.557 371.505 415.218 369.241 417.54 367.861 Z"
opacity="0.996" fill="rgb(216,59,58)" fill-rule="evenodd" />
<path d="
M 409.225 428.927
C 410.195 428.159 410.351 429.04 411.163 428.791
C 413.492 440.775 416.764 452.477 422.697 463.232
C 423.877 465.371 425.147 467.5 426.219 469.694
C 426.644 470.563 426.665 471.949 427.445 472.563
C 427.141 473.075 426.787 473.479 426.31 473.834
C 426.45 472.915 424.665 471.644 424.152 470.959
C 422.348 468.546 420.993 465.564 419.662 462.868
C 415.775 454.996 412.531 446.8 410.664 438.187
C 410.047 435.338 408.794 431.849 409.225 428.927 Z"
opacity="0.996" fill="rgb(217,54,54)" fill-rule="evenodd" />
<path d="
M 419.623 368.627
C 428.026 372.372 437.074 377.702 442.527 385.383
C 439.553 386.324 436.592 389.083 433.73 390.503
C 426.863 393.91 418.752 396.216 411.019 395.266
C 410.486 394.206 412.065 391.361 412.3 390.214
C 413.421 384.736 414.853 379.332 416.492 373.988
C 416.995 372.349 417.696 368.57 419.623 368.627 Z"
opacity="1" fill="rgb(156,26,32)" fill-rule="evenodd" />
<path d="
M 411.163 428.791
C 414.051 427.568 418.046 428.17 421.064 428.636
C 429.19 429.892 436.829 433.423 443.255 438.525
C 445.434 440.256 447.29 442.286 449.062 444.423
C 449.515 444.969 450.919 446.128 450.779 446.851
C 448.809 449.602 446.09 452.204 443.702 454.605
C 438.399 460.618 433.084 466.873 427.445 472.563
C 426.665 471.949 426.644 470.563 426.219 469.694
C 425.147 467.5 423.877 465.371 422.697 463.232
C 416.764 452.477 413.492 440.775 411.163 428.791 Z"
opacity="1" fill="rgb(155,26,32)" fill-rule="evenodd" />
<path d="
M 430.971 584.384
C 437.633 587.427 444.196 590.826 451.131 593.288
C 481.612 604.112 514.692 608.206 546.778 603.104
C 560.861 600.864 574.701 597.281 587.955 592.021
C 591.25 590.714 594.509 589.326 597.748 587.887
C 598.739 587.446 600.484 586.174 601.501 586.986
C 602.937 589.618 605.356 592.064 607.129 594.514
C 607.598 595.162 609.12 596.463 608.888 597.299
C 604.797 598.805 600.925 600.97 596.856 602.559
C 588.759 605.72 580.614 608.542 572.275 610.989
C 559.912 614.615 546.769 616.426 533.949 617.349
C 514.992 618.715 495.388 618.151 476.775 613.903
C 466.026 611.45 455.502 608.617 445.161 604.771
C 440.073 602.879 435.064 600.737 430.114 598.514
C 427.752 597.454 425.332 595.793 422.856 595.084
C 422.679 594.201 423.837 593.121 424.361 592.433
C 425.892 590.425 427.315 588.319 428.796 586.272
C 429.408 585.424 429.866 584.377 430.971 584.384 Z"
opacity="1" fill="rgb(158,30,33)" fill-rule="evenodd" />
<path d="
M 472.948 527.228
C 473.224 527.74 473.927 528.715 473.953 529.248
C 473.414 530.235 473.521 530.871 473.628 531.938
C 472.766 537.693 474.528 544.672 476.432 550.078
C 476.792 550.744 476.932 551.514 477.337 552.144
C 477.721 553.56 478.817 554.878 479.56 556.13
C 482.124 560.453 485.389 564.096 489.243 567.312
C 507.565 582.603 535.59 580.431 550.625 561.402
C 552.894 558.531 555.385 555.28 556.575 551.793
C 558.28 548.509 558.981 544.189 559.629 540.572
C 559.904 539.037 559.847 536.414 560.923 535.25
C 567.488 542.388 573.115 550.62 579 558.323
C 586.368 567.968 594.188 577.331 601.501 586.986
C 600.484 586.174 598.739 587.446 597.748 587.887
C 594.509 589.326 591.25 590.714 587.955 592.021
C 574.701 597.281 560.861 600.864 546.778 603.104
C 514.692 608.206 481.612 604.112 451.131 593.288
C 444.196 590.826 437.633 587.427 430.971 584.384
C 430.471 583.346 432.37 581.748 432.984 581.008
C 435.533 577.935 437.793 574.442 440.013 571.125
C 444.167 564.921 448.861 559.145 453.266 553.126
C 456.814 548.278 460.104 543.26 463.738 538.473
C 465.908 535.616 468.274 532.925 470.503 530.12
C 471.19 529.255 471.962 527.644 472.948 527.228 Z"
opacity="1" fill="rgb(247,186,32)" fill-rule="evenodd" />
<path d="
M 614.854 243.398
C 613.756 243.685 611.844 241.977 610.928 241.422
C 607.419 239.299 603.659 237.611 599.916 235.952
C 586.057 229.808 572.255 224.843 557.431 221.514
C 526.074 214.474 492.482 216.077 461.743 225.279
C 454.371 227.486 447.481 230.621 440.393 233.503
C 438.039 231.633 436.438 228.503 434.347 226.312
C 433.641 225.572 431.984 224.363 431.728 223.475
C 440.429 218.535 450.197 215.648 459.718 212.648
C 497.205 200.84 539.397 202.212 576.818 213.337
C 588.97 216.95 600.799 221.903 612.032 227.756
C 614.711 229.152 617.511 230.465 620.044 232.113
C 620.385 232.334 622.425 233.481 622.33 233.79
C 620.075 237.036 617.394 240.363 614.854 243.398 Z"
opacity="1" fill="rgb(158,29,33)" fill-rule="evenodd" />
<path d="
M 440.393 233.503
C 447.481 230.621 454.371 227.486 461.743 225.279
C 492.482 216.077 526.074 214.474 557.431 221.514
C 572.255 224.843 586.057 229.808 599.916 235.952
C 603.659 237.611 607.419 239.299 610.928 241.422
C 611.844 241.977 613.756 243.685 614.854 243.398
C 611.142 247.156 607.949 251.554 604.677 255.693
C 598.539 263.458 592.543 271.342 586.359 279.071
C 575.857 292.198 565.444 305.395 555.033 318.596
C 549.8 325.233 544.202 331.601 539.211 338.425
C 532.592 347.475 525.347 356.035 518.604 364.988
C 515.596 368.982 512.594 372.982 509.579 376.971
C 508.501 378.398 507.512 380.344 506.12 381.462
C 505.538 380.648 504.959 379.72 504.237 379.034
C 504.51 376.904 505.813 374.938 506.345 372.827
C 507.655 367.633 506.37 362.23 502.142 358.748
C 498.692 355.906 493.619 354.796 489.275 355.959
C 488.237 356.236 484.402 357.005 484.979 358.48
C 483.871 357.783 483.03 356.525 482.157 355.561
C 480.153 353.349 478.272 351.1 476.49 348.706
C 472.126 342.843 468.239 336.598 466.422 329.437
C 462.921 315.633 465.988 301.184 464.773 287.155
C 463.959 277.746 461.595 268.274 457.843 259.597
C 453.726 250.078 447.09 241.35 440.393 233.503 Z
M 557.476 272.204
C 556.001 268.115 553.407 263.651 550.594 260.336
C 537.141 244.484 513.718 240.26 495.533 250.466
C 491.183 252.907 487.458 256.395 484.223 260.152
C 481.162 263.706 478.522 267.556 476.9 271.961
C 474.655 277.862 472.553 285.146 473.731 291.525
C 473.725 292.194 473.839 292.832 473.879 293.496
C 473.931 298.172 475.584 302.81 477.402 307.065
C 477.782 307.924 478.248 308.839 478.781 309.611
C 480.804 315.879 486.673 321.671 491.887 325.367
C 496.905 328.924 502.668 331.73 508.735 332.917
C 527.31 336.552 547.027 327.393 555.798 310.482
C 558.54 305.015 559.607 299.418 560.758 293.478
C 560.848 292.977 560.844 292.558 560.804 292.051
C 561.151 285.726 559.971 278.048 557.476 272.204 Z"
opacity="1" fill="rgb(247,186,34)" fill-rule="evenodd" />
<path d="
M 462.077 408.959
C 464.897 412.307 467.742 415.758 470.435 419.211
C 471.065 420.018 473.136 421.987 472.067 422.84
C 470.953 422.092 469.348 422.341 468.051 422.178
C 465.914 421.91 463.648 420.725 462.374 418.946
C 460.831 416.792 460.462 413.8 460.511 411.22
C 460.515 410.972 460.778 408.409 461.023 408.386
C 461.421 408.35 461.725 408.768 462.077 408.959 Z"
opacity="1" fill="rgb(128,18,16)" fill-rule="evenodd" />
<path d="
M 480.2 516.758
C 481.684 516.423 482.619 517.613 483.917 518.156
C 486.762 519.344 489.844 520.061 492.778 521.02
C 500.367 523.502 509.231 524.146 517.171 524.256
C 524.806 524.362 532.72 523.752 540.163 521.961
C 542.16 521.48 544.34 521.157 546.265 520.442
C 547.159 520.111 548.112 519.36 549.023 519.976
C 551.395 522.695 553.637 525.555 555.778 528.459
C 556.716 529.731 557.961 531.008 558.615 532.449
C 558.023 532.839 557.733 532.226 557.105 532.309
C 556.03 532.451 554.899 532.873 553.839 533.128
C 549.343 534.21 544.899 535.19 540.35 536.032
C 520.922 539.632 500.489 538.721 481.609 532.454
C 478.95 531.572 476.533 530.237 473.953 529.248
C 473.927 528.715 473.224 527.74 472.948 527.228
C 473.162 526.182 474.217 525.148 474.785 524.248
C 476.339 521.781 478.13 518.814 480.2 516.758 Z"
opacity="1" fill="rgb(155,26,33)" fill-rule="evenodd" />
<path d="
M 476.9 271.961
C 478.387 271.182 480.28 271.038 481.903 270.635
C 486.006 269.615 490.131 268.735 494.328 268.184
C 509.019 266.252 523.66 266.404 538.344 268.116
C 542.981 268.657 547.526 269.694 552.107 270.558
C 553.704 270.86 556.278 271.026 557.476 272.204
C 559.971 278.048 561.151 285.726 560.804 292.051
C 559.906 291.332 559.264 290.419 558.241 289.825
C 553.656 287.158 547.372 286.312 542.256 285.165
C 526.358 281.6 509.786 281.157 493.799 284.57
C 489.521 285.483 485.37 286.534 481.233 287.961
C 478.465 288.917 475.997 289.546 473.731 291.525
C 472.553 285.146 474.655 277.862 476.9 271.961 Z"
opacity="1" fill="rgb(155,25,33)" fill-rule="evenodd" />
<path d="
M 473.953 529.248
C 476.533 530.237 478.95 531.572 481.609 532.454
C 500.489 538.721 520.922 539.632 540.35 536.032
C 544.899 535.19 549.343 534.21 553.839 533.128
C 554.899 532.873 556.03 532.451 557.105 532.309
C 557.733 532.226 558.023 532.839 558.615 532.449
C 559.296 532.984 560.008 533.783 560.491 534.5
C 559.198 534.031 557.899 534.661 556.674 535.046
C 554.874 535.613 553.022 536.05 551.176 536.436
C 543.174 538.111 535.252 539.999 527.076 540.675
C 511.143 541.991 495.48 538.54 480.213 534.501
C 477.88 533.883 475.877 532.599 473.628 531.938
C 473.521 530.871 473.414 530.235 473.953 529.248 Z"
opacity="1" fill="rgb(214,53,52)" fill-rule="evenodd" />
<path d="
M 473.628 531.938
C 475.877 532.599 477.88 533.883 480.213 534.501
C 495.48 538.54 511.143 541.991 527.076 540.675
C 535.252 539.999 543.174 538.111 551.176 536.436
C 553.022 536.05 554.874 535.613 556.674 535.046
C 557.899 534.661 559.198 534.031 560.491 534.5
C 560.643 534.747 560.785 534.995 560.923 535.25
C 559.847 536.414 559.904 539.037 559.629 540.572
C 558.981 544.189 558.28 548.509 556.575 551.793
C 553.322 552.005 550.236 552.896 547.04 553.477
C 542.224 554.353 537.327 555.068 532.454 555.551
C 522.963 556.492 513.271 556.081 503.787 555.277
C 496.738 554.68 489.918 553.254 483.018 551.772
C 481.84 551.519 476.108 549.575 477.337 552.144
C 476.932 551.514 476.792 550.744 476.432 550.078
C 474.528 544.672 472.766 537.693 473.628 531.938 Z"
opacity="1" fill="rgb(158,27,33)" fill-rule="evenodd" />
<path d="
M 473.731 291.525
C 475.997 289.546 478.465 288.917 481.233 287.961
C 485.37 286.534 489.521 285.483 493.799 284.57
C 509.786 281.157 526.358 281.6 542.256 285.165
C 547.372 286.312 553.656 287.158 558.241 289.825
C 559.264 290.419 559.906 291.332 560.804 292.051
C 560.844 292.558 560.848 292.977 560.758 293.478
C 560.556 292.694 557.444 292.064 556.717 291.819
C 552.121 290.268 547.456 289.111 542.754 287.936
C 525.446 283.611 507.17 283.616 489.881 288.06
C 485.727 289.128 481.64 290.396 477.566 291.736
C 476.587 292.059 474.179 292.503 473.879 293.496
C 473.839 292.832 473.725 292.194 473.731 291.525 Z"
opacity="1" fill="rgb(215,55,52)" fill-rule="evenodd" />
<path d="
M 473.879 293.496
C 474.179 292.503 476.587 292.059 477.566 291.736
C 481.64 290.396 485.727 289.128 489.881 288.06
C 507.17 283.616 525.446 283.611 542.754 287.936
C 547.456 289.111 552.121 290.268 556.717 291.819
C 557.444 292.064 560.556 292.694 560.758 293.478
C 559.607 299.418 558.54 305.015 555.798 310.482
C 547.027 327.393 527.31 336.552 508.735 332.917
C 502.668 331.73 496.905 328.924 491.887 325.367
C 486.673 321.671 480.804 315.879 478.781 309.611
C 478.293 308.211 480.529 308.139 481.589 307.664
C 484.675 306.28 488.131 304.863 491.454 304.199
C 496.299 303.231 501.075 302.06 505.979 301.376
C 515.107 300.102 524.741 300.585 533.785 302.257
C 539.697 303.351 545.317 305.139 551.096 306.726
C 552.332 307.065 553.532 307.524 554.769 307.861
C 555.086 307.947 556.083 308.325 556.316 307.907
C 556.548 307.49 555.819 306.6 555.603 306.32
C 554.586 305.003 552.404 304.548 550.88 304.07
C 544.134 301.954 537.514 300.15 530.471 299.314
C 518.38 297.879 506.089 298.02 494.224 301.096
C 490.044 302.179 486.009 303.321 482.008 304.953
C 480.802 305.445 478.597 307.476 477.402 307.065
C 475.584 302.81 473.931 298.172 473.879 293.496 Z"
opacity="1" fill="rgb(155,25,33)" fill-rule="evenodd" />
<path d="
M 477.402 307.065
C 478.597 307.476 480.802 305.445 482.008 304.953
C 486.009 303.321 490.044 302.179 494.224 301.096
C 506.089 298.02 518.38 297.879 530.471 299.314
C 537.514 300.15 544.134 301.954 550.88 304.07
C 552.404 304.548 554.586 305.003 555.603 306.32
C 555.819 306.6 556.548 307.49 556.316 307.907
C 556.083 308.325 555.086 307.947 554.769 307.861
C 553.532 307.524 552.332 307.065 551.096 306.726
C 545.317 305.139 539.697 303.351 533.785 302.257
C 524.741 300.585 515.107 300.102 505.979 301.376
C 501.075 302.06 496.299 303.231 491.454 304.199
C 488.131 304.863 484.675 306.28 481.589 307.664
C 480.529 308.139 478.293 308.211 478.781 309.611
C 478.248 308.839 477.782 307.924 477.402 307.065 Z"
opacity="1" fill="rgb(214,54,53)" fill-rule="evenodd" />
<path d="
M 481.715 514.884
C 482.5 515.439 483.767 515.476 484.691 515.751
C 487.145 516.482 489.543 517.391 491.997 518.128
C 503.729 521.649 517.093 522.872 529.246 521.116
C 533.399 520.516 537.483 519.596 541.587 518.736
C 543.42 518.352 545.232 517.563 547.133 517.939
C 547.788 518.546 548.497 519.256 549.023 519.976
C 548.112 519.36 547.159 520.111 546.265 520.442
C 544.34 521.157 542.16 521.48 540.163 521.961
C 532.72 523.752 524.806 524.362 517.171 524.256
C 509.231 524.146 500.367 523.502 492.778 521.02
C 489.844 520.061 486.762 519.344 483.917 518.156
C 482.619 517.613 481.684 516.423 480.2 516.758
C 480.668 516.125 481.125 515.408 481.715 514.884 Z"
opacity="1" fill="rgb(214,56,53)" fill-rule="evenodd" />
<path d="
M 496.75 494.271
C 498.945 493.742 501.031 492.237 503.192 491.473
C 508.078 489.746 513.104 488.852 518.286 488.757
C 520.078 488.724 522.412 488.35 524.099 488.967
C 525.172 489.895 525.956 491.229 526.84 492.334
C 529.116 495.179 531.372 498.04 533.611 500.912
C 538.043 506.6 543.178 511.897 547.133 517.939
C 545.232 517.563 543.42 518.352 541.587 518.736
C 537.483 519.596 533.399 520.516 529.246 521.116
C 517.093 522.872 503.729 521.649 491.997 518.128
C 489.543 517.391 487.145 516.482 484.691 515.751
C 483.767 515.476 482.5 515.439 481.715 514.884
C 484.562 510.039 488.193 505.385 491.525 500.855
C 493.079 498.741 494.663 495.877 496.75 494.271 Z"
opacity="1" fill="rgb(159,26,33)" fill-rule="evenodd" />
<path d="
M 504.237 379.034
C 500.136 374.081 495.478 369.448 491.012 364.821
C 489.005 362.742 486.702 360.805 484.979 358.48
C 484.402 357.005 488.237 356.236 489.275 355.959
C 493.619 354.796 498.692 355.906 502.142 358.748
C 506.37 362.23 507.655 367.633 506.345 372.827
C 505.813 374.938 504.51 376.904 504.237 379.034 Z"
opacity="1" fill="rgb(145,24,26)" fill-rule="evenodd" />
<path d="
M 524.099 488.967
C 522.412 488.35 520.078 488.724 518.286 488.757
C 513.104 488.852 508.078 489.746 503.192 491.473
C 501.031 492.237 498.945 493.742 496.75 494.271
C 501.349 487.183 506.359 480.453 511.513 473.754
C 513.053 475.074 514.269 476.868 515.579 478.417
C 518.507 481.875 521.353 485.381 524.099 488.967 Z"
opacity="1" fill="rgb(244,186,39)" fill-rule="evenodd" />
<path d="
M 518.385 464.08
C 523.909 456.442 529.246 448.276 535.643 441.338
C 537.492 439.333 541.079 435.267 544.107 435.717
C 548.076 440.811 553.733 444.974 558.337 449.501
C 569.681 460.657 581.107 471.738 592.353 482.994
C 620.152 510.818 647.876 538.711 675.668 566.544
C 687.798 578.692 700.133 590.637 712.165 602.881
C 717.412 608.22 722.808 613.41 727.756 619.029
C 742.453 635.719 737.932 662.091 718.405 672.816
C 714.663 674.871 710.666 676.313 706.438 676.957
C 702.189 677.604 697.875 677.273 693.716 676.238
C 687.88 674.784 681.806 671.451 677.481 667.256
C 673.76 663.646 670.778 659.307 667.576 655.251
C 658.655 643.95 649.867 632.541 641.132 621.098
C 623.93 598.564 606.404 576.278 589.224 553.731
C 579.138 540.494 568.349 527.762 558.373 514.45
C 549.492 502.601 540.066 491.077 530.698 479.61
C 527.953 476.25 525.304 472.813 522.553 469.456
C 521.24 467.853 519.985 465.728 518.275 464.532
C 518.312 464.382 518.348 464.231 518.385 464.08 Z"
opacity="1" fill="rgb(162,27,34)" fill-rule="evenodd" />
<path d="
M 616.811 394.4
C 617.61 395.536 620.935 394.969 622.178 394.921
C 627.881 394.704 633.121 392.823 638.297 390.583
C 638.731 390.369 639.075 390.167 639.44 389.851
C 644.839 387.62 649.813 383.02 653.673 378.754
C 655.219 377.469 656.186 375.273 657.236 373.584
C 661.262 367.107 663.362 359.188 663.627 351.59
C 663.714 349.122 663.56 346.723 663.315 344.274
C 663.227 343.385 662.686 341.958 663.043 341.106
C 663.769 339.374 665.813 337.791 666.985 336.33
C 669.48 333.221 671.796 329.916 674.132 326.685
C 676.475 323.445 678.91 320.262 681.272 317.032
C 681.851 316.241 682.884 314.042 683.854 313.938
C 684.305 315.761 685.637 317.624 686.521 319.288
C 688.162 322.375 689.683 325.546 691.15 328.719
C 694.877 336.781 697.895 345.428 700.477 353.921
C 710.544 387.031 710.894 423.902 702.15 457.329
C 696.975 477.115 688.801 495.109 678.654 512.81
C 674.925 519.315 670.261 525.786 665.419 531.508
C 664.429 532.678 660.618 536.084 661.974 537.54
C 658.368 534.6 655.272 530.814 652.059 527.446
C 649.519 524.782 646.736 522.372 644.157 519.742
C 642.612 518.167 641.08 516.576 639.549 514.988
C 639.003 514.421 637.917 513.752 637.726 513.03
C 654.344 505.369 664.375 488.019 663.034 469.884
C 662.542 463.233 660.765 456.924 657.781 450.95
C 657.074 449.535 656.374 448.11 655.492 446.793
C 655.094 446.199 654.571 444.933 653.862 445.904
C 654.294 444.315 652.227 443.054 651.129 441.988
C 648.037 438.985 644.402 436.146 640.544 434.203
C 639.819 433.823 639.177 433.312 638.532 432.812
C 636.55 432.238 634.66 431.16 632.711 430.449
C 630.043 429.474 627.289 428.928 624.489 428.475
C 623.747 428.408 623.125 428.143 622.374 428.221
C 621.63 428.558 619.628 428.136 618.71 428.124
C 616.032 428.089 613.273 428.241 610.642 428.754
C 600.958 430.642 590.696 436.135 584.806 444.238
C 583.165 446.497 581.663 448.813 580.273 451.235
C 579.585 452.434 578.741 453.693 579.41 455.064
C 574.623 451.255 570.334 446.356 565.941 442.079
C 562.708 438.932 558.64 435.665 556.081 431.945
C 559.28 430.331 562.863 429.373 566.222 428.119
C 572.3 425.848 578.501 423.089 584.066 419.739
C 592.788 414.489 601.216 408.295 609.001 401.739
C 611.682 399.482 614.006 396.434 616.811 394.4 Z"
opacity="1" fill="rgb(246,186,33)" fill-rule="evenodd" />
<path d="
M 622.374 428.221
C 620.447 431.496 620.483 436.156 619.477 439.794
C 617.508 446.914 614.947 453.947 612.014 460.727
C 610.06 465.242 607.686 469.424 604.9 473.473
C 604.419 474.172 602.177 476.825 603.128 477.683
C 604.052 478.518 605.607 476.223 606.077 475.649
C 608.327 472.9 609.888 469.657 611.599 466.565
C 615.857 458.872 619.2 450.378 621.277 441.828
C 622.069 438.568 622.994 435.101 623.319 431.762
C 623.396 430.971 623.426 428.491 624.489 428.475
C 627.289 428.928 630.043 429.474 632.711 430.449
C 634.66 431.16 636.55 432.238 638.532 432.812
C 637.163 434.792 636.945 437.452 636.399 439.746
C 635.268 444.496 634.114 449.154 632.546 453.784
C 628.922 464.487 622.961 474.456 616.942 483.935
C 616.252 485.023 615.497 486.137 615.014 487.337
C 614.723 488.059 614.762 488.984 614.31 489.61
C 613.526 488.362 612.04 487.289 610.984 486.248
C 608.292 483.593 605.452 481.012 602.908 478.227
C 595.388 470.26 586.578 463.333 579.41 455.064
C 578.741 453.693 579.585 452.434 580.273 451.235
C 581.663 448.813 583.165 446.497 584.806 444.238
C 590.696 436.135 600.958 430.642 610.642 428.754
C 613.273 428.241 616.032 428.089 618.71 428.124
C 619.628 428.136 621.63 428.558 622.374 428.221 Z"
opacity="1" fill="rgb(155,25,33)" fill-rule="evenodd" />
<path d="
M 622.374 428.221
C 623.125 428.143 623.747 428.408 624.489 428.475
C 623.426 428.491 623.396 430.971 623.319 431.762
C 622.994 435.101 622.069 438.568 621.277 441.828
C 619.2 450.378 615.857 458.872 611.599 466.565
C 609.888 469.657 608.327 472.9 606.077 475.649
C 605.607 476.223 604.052 478.518 603.128 477.683
C 602.177 476.825 604.419 474.172 604.9 473.473
C 607.686 469.424 610.06 465.242 612.014 460.727
C 614.947 453.947 617.508 446.914 619.477 439.794
C 620.483 436.156 620.447 431.496 622.374 428.221 Z"
opacity="1" fill="rgb(213,56,58)" fill-rule="evenodd" />
<path d="
M 614.31 489.61
C 614.762 488.984 614.723 488.059 615.014 487.337
C 615.497 486.137 616.252 485.023 616.942 483.935
C 622.961 474.456 628.922 464.487 632.546 453.784
C 634.114 449.154 635.268 444.496 636.399 439.746
C 636.945 437.452 637.163 434.792 638.532 432.812
C 639.177 433.312 639.819 433.823 640.544 434.203
C 639.711 434.947 639.821 435.885 639.603 436.925
C 639.161 439.031 638.777 441.16 638.193 443.233
C 635.986 451.064 633.369 459.079 629.913 466.454
C 626.942 472.792 623.214 478.887 619.449 484.782
C 618.461 486.33 615.082 489.203 615.943 491.106
C 615.393 490.614 614.867 490.093 614.31 489.61 Z"
opacity="1" fill="rgb(217,56,55)" fill-rule="evenodd" />
<path d="
M 640.544 434.203
C 644.402 436.146 648.037 438.985 651.129 441.988
C 652.227 443.054 654.294 444.315 653.862 445.904
C 651.355 451.553 650.071 457.792 647.858 463.581
C 644.403 472.617 639.724 481.425 634.582 489.61
C 632.635 492.709 630.79 495.949 628.522 498.828
C 628.099 499.365 626.946 501.487 626.244 501.421
C 624.287 499.807 622.594 497.803 620.798 496.011
C 619.204 494.421 617.295 492.91 615.943 491.106
C 615.082 489.203 618.461 486.33 619.449 484.782
C 623.214 478.887 626.942 472.792 629.913 466.454
C 633.369 459.079 635.986 451.064 638.193 443.233
C 638.777 441.16 639.161 439.031 639.603 436.925
C 639.821 435.885 639.711 434.947 640.544 434.203 Z"
opacity="1" fill="rgb(154,26,33)" fill-rule="evenodd" />
<path d="
M 653.673 378.754
C 649.813 383.02 644.839 387.62 639.44 389.851
C 638.551 390.068 638.557 388.533 638.426 387.916
C 637.903 385.445 636.879 383.119 636.302 380.663
C 636.146 380 635.759 377.917 634.616 378.654
C 634.208 378.917 634.895 381.298 634.951 381.66
C 635.341 384.184 635.964 387.095 637.106 389.391
C 637.369 389.921 638.12 390.179 638.297 390.583
C 633.121 392.823 627.881 394.704 622.178 394.921
C 620.935 394.969 617.61 395.536 616.811 394.4
C 619.542 390.925 622.921 387.969 626.055 384.86
C 628.797 382.14 631.386 379.08 634.335 376.601
C 635.295 374.424 637.709 372.437 639.291 370.679
C 642.047 367.617 644.452 363.827 647.661 361.236
C 648.516 361.357 649.177 364.322 649.453 365.095
C 650.658 368.48 651.712 371.878 652.637 375.349
C 652.869 376.218 653.846 377.929 653.673 378.754 Z"
opacity="1" fill="rgb(154,25,31)" fill-rule="evenodd" />
<path d="
M 639.44 389.851
C 639.075 390.167 638.731 390.369 638.297 390.583
C 638.12 390.179 637.369 389.921 637.106 389.391
C 635.964 387.095 635.341 384.184 634.951 381.66
C 634.895 381.298 634.208 378.917 634.616 378.654
C 635.759 377.917 636.146 380 636.302 380.663
C 636.879 383.119 637.903 385.445 638.426 387.916
C 638.557 388.533 638.551 390.068 639.44 389.851 Z"
opacity="0.996" fill="rgb(239,66,57)" fill-rule="evenodd" />
<path d="
M 683.854 313.938
C 683.927 312.63 685.21 311.274 685.96 310.237
C 687.738 307.779 689.587 305.32 691.142 302.721
C 691.892 302.619 692.99 305.001 693.374 305.631
C 695.316 308.814 697.062 312.192 698.728 315.527
C 705.977 330.036 711.717 344.791 715.358 360.633
C 726.73 410.119 720.19 463.1 696.032 507.851
C 690.553 518.001 684.063 527.543 677.389 536.934
C 675.727 539.273 673.979 541.583 672.085 543.739
C 671.636 544.25 670.958 545.716 670.24 545.837
C 667.253 543.623 664.413 540.344 661.974 537.54
C 660.618 536.084 664.429 532.678 665.419 531.508
C 670.261 525.786 674.925 519.315 678.654 512.81
C 688.801 495.109 696.975 477.115 702.15 457.329
C 710.894 423.902 710.544 387.031 700.477 353.921
C 697.895 345.428 694.877 336.781 691.15 328.719
C 689.683 325.546 688.162 322.375 686.521 319.288
C 685.637 317.624 684.305 315.761 683.854 313.938 Z"
opacity="1" fill="rgb(157,27,33)" fill-rule="evenodd" />
<path d="
M 698.224 526.292
C 708.718 520.68 719.261 514.978 729.959 509.742
C 733.311 508.101 737.023 507.075 740.279 505.281
C 740.729 502.975 740.329 500.348 740.323 498.002
C 740.31 493.169 740.294 488.335 740.286 483.502
C 740.259 468.002 740.273 452.501 740.265 437.001
C 740.259 423.168 740.27 409.334 740.261 395.501
C 740.259 391.001 740.19 386.504 740.112 382.005
C 740.079 380.1 740.518 377.803 740.139 375.953
C 736.632 376.464 732.279 377.269 729.411 379.515
C 729.07 377.366 728.868 375.209 728.599 373.048
C 728.503 372.272 728.076 371.237 728.363 370.514
C 731.59 368.98 734.797 367.764 738.205 366.702
C 738.719 361.362 737.82 355.902 738.269 350.569
C 733.925 352.127 729.787 354.601 725.423 355.958
C 724.662 355.106 724.339 353.523 724.067 352.434
C 723.48 350.081 722.898 347.712 722.261 345.375
C 724.096 343.457 727.432 342.311 729.864 341.371
C 735.571 339.166 741.366 337.284 747.345 335.957
C 772.089 330.463 798.259 337.529 818.743 351.944
C 828.819 359.035 837.605 367.812 845.745 377.013
C 851.513 383.532 856.676 390.595 861.479 397.844
C 863.146 400.361 866.05 403.627 866.796 406.563
C 867.296 408.532 866.999 411.049 866.983 413.077
C 866.97 414.754 866.871 416.431 866.878 418.108
C 866.881 418.861 867.277 420.108 866.976 420.81
C 865.247 419.321 864.306 416.183 863.2 414.22
C 863.005 413.874 861.999 412.428 861.903 412.493
C 861.354 412.861 861.968 413.816 861.922 414.475
C 861.774 416.595 861.875 418.714 861.873 420.839
C 861.869 423.708 861.299 427.552 862.208 430.298
C 862.971 432.602 865.322 433.858 866.448 435.88
C 866.99 436.854 866.782 438.265 866.78 439.333
C 866.776 441.568 866.889 443.793 866.719 446.023
C 866.165 445.465 865.811 444.282 865.436 443.567
C 864.311 441.42 863.035 439.268 861.714 437.234
C 857.194 430.275 852.343 423.576 847.34 416.957
C 845.685 414.767 843.903 412.644 842.167 410.515
C 841.397 409.57 840.392 408.481 839.103 408.401
C 838.39 431.392 838.918 454.488 838.89 477.501
C 838.879 486.295 838.941 495.09 838.913 503.885
C 838.894 509.754 838.544 515.757 839.108 521.593
C 840.74 524.235 844.211 526.316 846.377 528.592
C 851.542 534.019 856.151 539.926 860.669 545.889
C 862.7 548.569 865.65 551.814 866.701 555.032
C 866.787 558.493 867.029 562.144 866.692 565.567
C 865.296 563.387 864.135 560.74 862.336 558.873
C 862.116 562.718 862.275 566.645 862.339 570.497
C 862.364 571.996 862.045 574.002 862.546 575.431
C 863.412 577.901 865.994 579.612 866.808 582.14
C 867.14 583.171 866.892 584.436 866.857 585.498
C 866.78 587.807 866.743 590.141 866.833 592.449
C 866.882 593.688 867.354 595.653 866.905 596.817
C 865.2 595.398 864.146 592.652 862.989 590.781
C 860.366 586.537 857.747 582.311 855.006 578.139
C 849.116 569.172 841.025 561.002 832.908 554.046
C 815.318 538.971 791.636 531.232 768.574 534.58
C 755.722 536.446 743.658 541.378 732.103 547.143
C 722.762 551.804 713.529 556.612 704.383 561.645
C 701.587 563.184 698.784 564.733 695.936 566.172
C 694.795 566.748 693.669 567.815 692.429 568.078
C 689.432 564.469 685.857 561.31 682.58 557.957
C 681.129 556.473 679.281 554.88 678.233 553.095
C 679.317 551.314 680.892 549.821 682.173 548.176
C 684.745 544.873 687.302 541.571 689.922 538.305
C 692.971 534.508 695.522 530.336 698.224 526.292 Z
M 693.737 537.815
C 694.131 543.048 694.496 549.031 693.897 554.246
C 693.892 554.381 695.215 553.459 695.447 553.319
C 696.536 552.66 697.639 552.036 698.739 551.396
C 702.137 549.419 705.448 547.401 709.161 546.074
C 709.674 545.377 709.231 542.938 709.244 542.006
C 709.3 538.042 709.53 534.07 709.472 530.106
C 708.277 529.937 706.193 531.608 705.116 532.206
C 701.407 534.267 697.483 535.85 693.737 537.815 Z
M 723.802 522.396
C 724.049 527.49 723.077 533.05 723.827 538.065
C 728.76 535.597 733.44 532.932 738.737 531.269
C 738.834 527.683 738.807 524.091 738.837 520.502
C 738.851 518.771 739.176 516.744 738.844 515.056
C 733.696 517.215 728.736 519.798 723.802 522.396 Z
M 749.456 374.125
C 749.053 378.71 749.316 383.403 749.332 388.002
C 749.357 395.001 749.284 402.002 749.303 409.001
C 749.36 429.334 749.278 449.668 749.318 470.001
C 749.332 477.334 749.329 484.668 749.351 492.001
C 749.36 495.138 749.903 498.608 749.488 501.693
C 753.353 500.924 757.038 499.336 760.943 498.687
C 776.785 496.057 793.921 496.504 809.015 502.438
C 813.245 504.101 817.466 505.931 821.346 508.318
C 824.494 510.256 827.357 512.649 830.51 514.565
C 831.321 493.136 830.694 471.474 830.657 450.008
C 830.637 438.339 830.631 426.67 830.608 415.001
C 830.598 409.748 830.877 404.455 830.651 399.209
C 827.355 395.921 823.359 393.108 819.619 390.339
C 804.566 379.199 785.356 370.604 766.237 371.229
C 762.653 371.346 759.004 371.634 755.452 372.077
C 753.532 372.317 751.321 372.34 749.525 373.092
C 749.494 373.852 749.521 373.508 749.456 374.125 Z
M 752.796 346.721
C 753.164 352.101 752.45 357.571 752.909 362.951
C 756.418 362.355 760.117 362.194 763.672 362.158
C 765.256 362.141 767.501 362.553 769.002 362.107
C 768.963 358.418 768.845 354.707 768.836 351.005
C 768.832 349.451 768.566 347.678 768.841 346.159
C 763.528 346.469 758.113 346.478 752.796 346.721 Z
M 753.376 509.487
C 752.829 510.652 753.203 512.699 753.202 513.999
C 753.199 517.789 752.932 521.789 753.29 525.558
C 758.358 524.088 763.667 523.749 768.703 522.42
C 769.171 521.339 768.759 519.205 768.754 518.01
C 768.738 514.224 768.467 510.248 768.798 506.487
C 763.548 507.037 758.535 508.438 753.376 509.487 Z
M 784.452 505.958
C 784.349 506.066 784.247 506.173 784.144 506.281
C 784.1 511.272 784.538 516.377 784.146 521.354
C 784.83 521.581 785.671 521.376 786.399 521.495
C 790.556 522.172 795.312 522.098 799.216 523.82
C 798.921 518.748 798.918 513.431 799.224 508.357
C 794.259 507.951 789.447 506.049 784.452 505.958 Z
M 784.874 348.388
C 784.044 351.877 784.743 356.403 784.785 359.997
C 784.801 361.364 784.396 363.371 784.841 364.629
C 790.127 364.704 795.149 367.611 799.937 369.453
C 799.186 364.378 799.843 358.824 799.628 353.682
C 798.307 352.783 796.465 352.346 794.971 351.781
C 791.634 350.518 788.323 349.316 784.874 348.388 Z
M 813.897 361.779
C 814.089 365.536 814.204 369.337 814.233 373.103
C 814.241 374.224 813.809 376.732 814.418 377.587
C 819.445 379.36 823.346 383.99 827.563 387.034
C 827.915 386.124 827.423 383.932 827.44 382.886
C 827.494 379.316 827.772 375.71 827.508 372.135
C 827.042 371.004 825.274 370.183 824.338 369.443
C 821.942 367.55 819.561 365.62 817.249 363.626
C 816.612 363.077 814.593 361.141 813.897 361.779 Z
M 814.154 513.825
C 814.49 518.996 813.819 524.325 814.479 529.472
C 817.63 530.354 820.785 532.319 823.409 534.233
C 824.61 535.108 826.368 536.853 827.76 537.313
C 828.335 532.136 827.441 526.749 827.855 521.538
C 823.242 519.144 818.616 516.481 814.154 513.825 Z
M 840.32 385.416
C 840.478 390.258 839.955 395.309 840.561 400.117
C 841.947 402.45 844.277 404.232 846.055 406.26
C 848.286 408.805 850.113 411.834 852.516 414.214
C 852.94 413.052 852.425 411.431 852.44 410.192
C 852.473 407.464 852.482 404.729 852.421 402.002
C 852.395 400.837 852.648 399.295 852.236 398.191
C 851.355 395.83 848.483 393.565 846.857 391.674
C 845.391 389.969 843.942 388.252 842.451 386.57
C 841.836 385.876 841.119 384.639 840.32 385.416 Z
M 840.536 532.854
C 841.202 538.031 840.415 543.415 840.75 548.621
C 843.704 550.905 846.249 553.408 848.628 556.329
C 849.516 557.421 851.066 560.083 852.409 560.519
C 852.708 559.958 852.435 559.127 852.385 558.513
C 852.277 557.191 852.393 555.825 852.403 554.498
C 852.419 552.334 852.358 550.17 852.333 548.006
C 852.322 547.002 852.572 545.627 852.227 544.672
C 851.958 543.932 851.012 543.214 850.502 542.626
C 849.09 540.996 847.713 539.338 846.218 537.78
C 844.899 536.405 843.518 535.034 842.085 533.778
C 841.638 533.386 841.149 532.656 840.536 532.854 Z"
opacity="1" fill="rgb(157,29,33)" fill-rule="evenodd" />
<path d="
M 729.411 379.515
C 732.279 377.269 736.632 376.464 740.139 375.953
C 740.518 377.803 740.079 380.1 740.112 382.005
C 740.19 386.504 740.259 391.001 740.261 395.501
C 740.27 409.334 740.259 423.168 740.265 437.001
C 740.273 452.501 740.259 468.002 740.286 483.502
C 740.294 488.335 740.31 493.169 740.323 498.002
C 740.329 500.348 740.729 502.975 740.279 505.281
C 737.023 507.075 733.311 508.101 729.959 509.742
C 719.261 514.978 708.718 520.68 698.224 526.292
C 700.182 523.926 701.356 520.596 702.814 517.896
C 705.82 512.334 708.751 506.745 711.464 501.037
C 724.043 474.573 730.932 444.3 731.564 415.031
C 731.822 403.123 730.352 391.347 729.411 379.515 Z"
opacity="1" fill="rgb(246,186,35)" fill-rule="evenodd" />
<path d="
M 749.456 374.125
C 749.521 373.508 749.494 373.852 749.525 373.092
C 751.321 372.34 753.532 372.317 755.452 372.077
C 759.004 371.634 762.653 371.346 766.237 371.229
C 785.356 370.604 804.566 379.199 819.619 390.339
C 823.359 393.108 827.355 395.921 830.651 399.209
C 830.877 404.455 830.598 409.748 830.608 415.001
C 830.631 426.67 830.637 438.339 830.657 450.008
C 830.694 471.474 831.321 493.136 830.51 514.565
C 827.357 512.649 824.494 510.256 821.346 508.318
C 817.466 505.931 813.245 504.101 809.015 502.438
C 793.921 496.504 776.785 496.057 760.943 498.687
C 757.038 499.336 753.353 500.924 749.488 501.693
C 749.903 498.608 749.36 495.138 749.351 492.001
C 749.329 484.668 749.332 477.334 749.318 470.001
C 749.278 449.668 749.36 429.334 749.303 409.001
C 749.284 402.002 749.357 395.001 749.332 388.002
C 749.316 383.403 749.053 378.71 749.456 374.125 Z"
opacity="1" fill="rgb(246,186,35)" fill-rule="evenodd" />
<path d="
M 866.719 446.023
C 867.413 472.143 866.775 498.37 866.743 524.5
C 866.731 534.596 865.98 544.972 866.701 555.032
C 865.65 551.814 862.7 548.569 860.669 545.889
C 856.151 539.926 851.542 534.019 846.377 528.592
C 844.211 526.316 840.74 524.235 839.108 521.593
C 838.544 515.757 838.894 509.754 838.913 503.885
C 838.941 495.09 838.879 486.295 838.89 477.501
C 838.918 454.488 838.39 431.392 839.103 408.401
C 840.392 408.481 841.397 409.57 842.167 410.515
C 843.903 412.644 845.685 414.767 847.34 416.957
C 852.343 423.576 857.194 430.275 861.714 437.234
C 863.035 439.268 864.311 441.42 865.436 443.567
C 865.811 444.282 866.165 445.465 866.719 446.023 Z"
opacity="1" fill="rgb(246,185,35)" fill-rule="evenodd" />

</svg>